/* XPM */
static char *c88c2cc6da6c4e1e9b1b55df94b416a0sVQj3d5uKTOPKSBw[] = {
/* columns rows colors chars-per-pixel */
"32 32 14 1 ",
"  c None",
". c black",
"X c #1F3F74",
"o c #274679",
"O c #39537D",
"+ c #C57D21",
"@ c #CE8B36",
"# c #C5893B",
"$ c #D2923F",
"% c #CE9142",
"& c #D79949",
"* c #F6CBA2",
"= c #EDD2B7",
"- c white",
/* pixels */
"                                ",
"                                ",
"                                ",
"                                ",
"                                ",
"                                ",
"            .......             ",
"           .XXXXXXX.            ",
"          .XXOOOOOOX.           ",
"         .XXOOOOOOOOX.          ",
"         .X*******OOO.          ",
"         .**=======OOO.         ",
"         .--.==--.=OOO.         ",
"         .--.==--.=OOO.         ",
"         ....==...=OOO.         ",
"        .&$$@+=====OOO.         ",
"        ..*========OoO.         ",
"         .*========ooO.         ",
"        .o*=======oooO.         ",
"       .oo*======oooOO.         ",
"       .oo*======ooOOO.         ",
"       ...*========OOO.         ",
"         .*========OOO.         ",
"         .**=======OOO.         ",
"          .*********O.          ",
"         .&&%#.&&%#..           ",
"         ..... .....            ",
"                                ",
"                                ",
"                                ",
"                                ",
"                                "
};
