/* XPM */
static char *_94c359f5b804c5faf123fb70d5780baeC0ujH6wJOCbKrq5[] = {
/* columns rows colors chars-per-pixel */
"32 32 3 1 ",
"  c #EEEEEE",
". c #F4F4F4",
"X c white",
/* pixels */
"XX.XXXX.   XXXXXXXXXX..  .XXXXXX",
"XXXXX...   XX.XXXXXX...  XXXXXXX",
"XXXXX..   .XXXXXXXX...  XXXXXXXX",
"XXX....  .XXXXXXXXX..  .XXX.XXXX",
"XX....   XXXXXXXXX..   XXXXXXXXX",
"X...    XXXXXXXXXX..  XXXXXXXXXX",
"...   .XXXX.XXXXX..  .XXXXXXXXX.",
"..   XXXXXXXXXX...   XXX.XXXXX..",
".   XXXXXXXXX....   .XXXXXXXX.. ",
"   .XXX.XXXX...     XXXXXXX...  ",
"  XXXXXXXXX...     .XXXXX...    ",
" .XXXXXXX....     XXXXX....     ",
"XXXXXXXX...    XXXXXXX....    .X",
"XXXXXXXX..    .X.XXXX....    .XX",
"XXXXXXX...   XXXXXXXX..     XXXX",
"XXXXXX...   XXXXXXXX...    .XXXX",
"XX.XXX...   XXXXXXXX...    XXX.X",
"XXXXX....  .XXXXXXX...    .XXXXX",
"XXXX....   XX.XXXX....    XXXXXX",
"XXX....   XXXXXXX....    XXXXXXX",
"X.....   XXXXX.....    .XXXXXXXX",
".....   .XXXX.....   XXXXXXXXXX.",
"..     XXXXX.....   XXXXX.XXXX..",
"     .XXXXXX...    .XXXXXXXXX...",
"    XXXXXXX...    XXXXXXXXXXX.. ",
"   XXXX.XXX...   XXXXXXXXXXX... ",
"  .XXXXXXXX..  .XXXX.XXXXXX...  ",
".XXXXXXXXX..   XXXXXXXXXX....  .",
"XXXXXXXXX...  XXXXXXXXXX...   XX",
"XX.XXXXXX..  .XXXXXXXXX....  .XX",
"XXXXXXXX..   XXXXXXXXX....  XXXX",
"XXXXXXX...  XXXXXX.XX....  .XXXX"
};
