/* XPM */
static char *_368d683a2044bffbdf440c594bbe34bRQUYiDxTggDeQgE2[] = {
/* columns rows colors chars-per-pixel */
"32 32 6 1 ",
"  c None",
". c black",
"X c #5591FB",
"o c #5B96FF",
"O c #639BFF",
"+ c white",
/* pixels */
"                                ",
"                                ",
"                                ",
"                                ",
"                                ",
"                                ",
"                                ",
"                                ",
"                                ",
"                                ",
"                                ",
"                                ",
"        OOoooooX       ooo      ",
"       OOOOOoooooX    ooo       ",
"      O.+OOOOOOooooX ooX        ",
"      O.+OOOOOOOOOOoooo         ",
"      OOOOOOOOOOOOooooo         ",
"      OOOOOOOOoooooX ooX        ",
"       ooooooooXXX    ooX       ",
"          XXXXX        XXX      ",
"                                ",
"                                ",
"                                ",
"                                ",
"                                ",
"                                ",
"                                ",
"                                ",
"                                ",
"                                ",
"                                ",
"                                "
};
