/* XPM */
static char *_1c2e16daef24cb8ee7304cbce0766fer4wyc8wBOQ4ceQPk[] = {
/* columns rows colors chars-per-pixel */
"32 32 14 1 ",
"  c None",
". c black",
"X c #1F3F74",
"o c #274679",
"O c #39537D",
"+ c #C57D21",
"@ c #CE8B36",
"# c #C5893B",
"$ c #D2923F",
"% c #CE9142",
"& c #D79949",
"* c #F6CBA2",
"= c #EDD2B7",
"- c white",
/* pixels */
"                                ",
"                                ",
"                                ",
"                                ",
"                                ",
"                                ",
"           .......              ",
"          .XXXXXXX.             ",
"         .XOOOOOOXX.            ",
"        .XOOOOOOOOXX.           ",
"        .OOO*******X.           ",
"       .OOO=======**.           ",
"       .OOO=.--==.--.           ",
"       .OOO=.--==.--.           ",
"       .OOO=...==....           ",
"       .OOO=====+@$$&.          ",
"       .OoO========*..          ",
"       .Ooo========*.           ",
"       .Oooo=======*o.          ",
"       .OOooo======*oo.         ",
"       .OOOoo======*oo.         ",
"       .OOO========*...         ",
"       .OOO========*.           ",
"       .OOO=======**.           ",
"        .O*********.            ",
"         ..#%&&.#%&&.           ",
"          ..... .....           ",
"                                ",
"                                ",
"                                ",
"                                ",
"                                "
};
