/* XPM */
static char *_afdabe64f014e6e90767b7fd99718cd7ZsdBVeiEBkWnJfM[] = {
/* columns rows colors chars-per-pixel */
"32 32 6 1 ",
"  c None",
". c black",
"X c #282828",
"o c #BDB9B9",
"O c #D3CFCF",
"+ c #EDE4E4",
/* pixels */
"                                ",
"                                ",
"                                ",
"                                ",
"                                ",
"                                ",
"           ..........           ",
"         ..OOoOOOOoOO..         ",
"        .++++o++++o++++.        ",
"       .oooooooooooooooo.       ",
"      .OOOoOOOOOOOOOOoOOO.      ",
"     .O+++o++++++++++o+++O.     ",
"    .O++++o++++++++++o+++++.    ",
"    .oooooooooooooooooooooo.    ",
"    .OOoOOOOOoOOOOoOOOOOoOO.    ",
"   .O++o+++++o++++o+++++o++O.   ",
"   .O++o+++++o++++o+++++o++O.   ",
"   .oooooooooo....oooooooooo.   ",
"   .OOOOOOoOO.++++.OOoOOOOOO.   ",
"  .O++++++o+.+....+.+o++++++O.  ",
"  .O++++++o.+.XXXX.+.o++++++O.  ",
"  .ooooooo.+.XXXXXX.+.ooooooo.  ",
"  .OOOOoOO.+.XXXXXX.+.OOoOOOO.  ",
"  .O+++oO+.+.XXXXXX.+.+Oo+++O.  ",
"  .O+++oO+.+........+.+Oo+++O.  ",
"   ..........................   ",
"                                ",
"                                ",
"                                ",
"                                ",
"                                ",
"                                "
};
