/* XPM */
static char *_7b455296a5e4701e779bc0063498548kaTlgd8BhdTcROE5[] = {
/* columns rows colors chars-per-pixel */
"32 32 11 1 ",
"  c None",
". c black",
"X c #1F3F74",
"o c #39537D",
"O c #C5893B",
"+ c #D2923F",
"@ c #CE9142",
"# c #D79949",
"$ c #F6CBA2",
"% c #EDD2B7",
"& c white",
/* pixels */
"                                ",
"                                ",
"                                ",
"                                ",
"                                ",
"                                ",
"            .......             ",
"           .XXXXXXX.            ",
"          .Xoooooooo.           ",
"         .Xoooooooooo.          ",
"         .Xo$$$$$$ooo.          ",
"         .o$%%%%%%%%o.          ",
"         .o$...%...%o.          ",
"         .o$.&&%&&.%o.          ",
"        .Xo$.&&%&&.%oo.         ",
"       .Xoo$%+++++%%ooX.        ",
"       .Xoo$%%%%%%%%ooX.        ",
"      .XXoo$%%%%%%%%ooXX.       ",
"      .XXoo$%%%%%%%%ooXX.       ",
"      .X.oo$%%%%%%%%oo.X.       ",
"      .X.oo$%%%%%%%%oo.X.       ",
"       ..oo$%%%%%%%%oo..        ",
"         .o$%%%%%%%%o.          ",
"         .o$$%%%%%%%o.          ",
"         .o$$$$$$$$$o.          ",
"          .##@O.##@O.           ",
"          ..... .....           ",
"                                ",
"                                ",
"                                ",
"                                ",
"                                "
};
