/* XPM */
static char *c84f62d275724c14b84e3fa8469cea926SNHc2P7IpC9dsHB[] = {
/* columns rows colors chars-per-pixel */
"32 32 7 1 ",
"  c None",
". c black",
"X c #1F3F74",
"o c #39537D",
"O c #C5893B",
"+ c #CE9142",
"@ c #D79949",
/* pixels */
"                                ",
"                                ",
"                                ",
"                                ",
"                                ",
"                                ",
"            .......             ",
"           .XXXXXXX.            ",
"          .XoooooooX.           ",
"         .Xoooooooooo.          ",
"         .Xoooooooooo.          ",
"         .Xoooooooooo.          ",
"         .ooooooooooo.          ",
"         .ooooooooooo.          ",
"        .XoooooooooooX.         ",
"       .XXoooooooooooXX.        ",
"       .XXoooooooooooXX.        ",
"      .XXXoooooooooooXXX.       ",
"      .XXXoooooooooooXXX.       ",
"      .X.XoooooooooooX.X.       ",
"      .X.XoooooooooooX.X.       ",
"       ..XoooooooooooX..        ",
"         .ooooXoXoooo.          ",
"         .oooooXooooo.          ",
"         .ooooooooooo.          ",
"          .@@+O.@@+O.           ",
"          ..... .....           ",
"                                ",
"                                ",
"                                ",
"                                ",
"                                "
};
