/* XPM */
static char *_5f6ce315f6545eee19eb1bb4c30c169D4X8dnmhnLy28iD4[] = {
/* columns rows colors chars-per-pixel */
"32 32 8 1 ",
"  c None",
". c #2C2C2C",
"X c #4B372C",
"o c #614739",
"O c #808080",
"+ c gray57",
"@ c #B4B4B4",
"# c #FBF6F6",
/* pixels */
"                                ",
"                                ",
"                                ",
"                                ",
"               OO               ",
"              O##@              ",
"             O####@             ",
"            .######.            ",
"            O.O@@@.@            ",
"           O@#....##@           ",
"           O@#######@           ",
"          .O@########@          ",
"         O@.O@######.#@         ",
"         O@#.O@@@@@.##@         ",
"         O@##......###O         ",
"        O.@@##########.@        ",
"        O@.@@########.#@        ",
"       OO@#.@@@@@@@@.###O       ",
"       .O@##........####.       ",
"      O+.O@############.#@      ",
"      O++.O@##########.##@      ",
"      O++@.O@@@@@@@@@.###O      ",
"      .O+@@..........###@.      ",
"       .O+@@###########@.       ",
"        .O+@@@@@@@@@@@@.        ",
"         .++++++++++++.         ",
"          ............          ",
"            .Xooooo.            ",
"            .Xooooo.            ",
"                                ",
"                                ",
"                                "
};
